<?xml version="1.0" encoding="utf-8"?>
<!-- Generator: Adobe Illustrator 15.1.0, SVG Export Plug-In . SVG Version: 6.00 Build 0)  -->
<!DOCTYPE svg PUBLIC "-//W3C//DTD SVG 1.1//EN" "http://www.w3.org/Graphics/SVG/1.1/DTD/svg11.dtd">
<svg version="1.1" id="Layer_1" xmlns="http://www.w3.org/2000/svg" xmlns:xlink="http://www.w3.org/1999/xlink" x="0px" y="0px"
	 width="27.25px" height="29.313px" viewBox="0 0 27.25 29.313" enable-background="new 0 0 27.25 29.313" xml:space="preserve">
<g>
	<circle fill="#373534" cx="9.117" cy="25.161" r="2.853"/>
	<circle fill="#373534" cx="2.863" cy="27.173" r="2.011"/>
	<path fill="#373534" d="M24.458,7.722c0.046-0.313,0.078-0.631,0.078-0.957c0-3.563-2.888-6.449-6.449-6.449
		c-1.971,0-3.732,0.887-4.916,2.28c-0.824-0.845-1.973-1.371-3.246-1.371c-2.504,0-4.534,2.03-4.534,4.534
		c0,0.041,0.005,0.08,0.006,0.121c-2.835,0.299-5.045,2.695-5.045,5.61c0,3.116,2.527,5.643,5.643,5.643
		c0.073,0,0.143-0.008,0.215-0.011c0.666,2.374,2.841,4.116,5.428,4.116c0.442,0,0.869-0.056,1.281-0.151
		c1.035,1.26,2.604,2.063,4.361,2.063c3.011,0,5.466-2.361,5.627-5.333c2.339-0.688,4.046-2.848,4.046-5.41
		C26.954,10.455,25.962,8.735,24.458,7.722z M10.56,14.854c-0.16,0.321-0.483,0.507-0.819,0.507c-0.137,0-0.276-0.029-0.407-0.096
		l-4.87-2.424c-0.452-0.225-0.636-0.773-0.411-1.225c0.225-0.453,0.774-0.637,1.226-0.412l4.87,2.424
		C10.601,13.854,10.785,14.402,10.56,14.854z M11.138,12.043c-0.083,0.063-0.18,0.095-0.277,0.095c-0.138,0-0.273-0.063-0.363-0.18
		l-2.238-2.93C8.106,8.827,8.144,8.54,8.346,8.388c0.2-0.154,0.486-0.115,0.64,0.085l2.238,2.931
		C11.377,11.603,11.339,11.89,11.138,12.043z M14.631,11.893c0,0.505-0.409,0.914-0.915,0.914c-0.505,0-0.914-0.409-0.914-0.914
		v-5.44c0-0.504,0.409-0.914,0.914-0.914c0.505,0,0.915,0.41,0.915,0.914V11.893z M16.347,12.043
		c-0.201-0.153-0.239-0.44-0.086-0.64l2.237-2.931c0.153-0.2,0.44-0.239,0.641-0.085c0.201,0.152,0.24,0.439,0.086,0.641
		l-2.237,2.93c-0.091,0.117-0.227,0.18-0.364,0.18C16.527,12.138,16.43,12.106,16.347,12.043z M23.021,12.841l-4.87,2.424
		c-0.131,0.066-0.27,0.096-0.407,0.096c-0.335,0-0.659-0.186-0.819-0.507c-0.225-0.451-0.04-1,0.412-1.226l4.869-2.424
		c0.453-0.225,1.002-0.041,1.227,0.412C23.657,12.067,23.473,12.616,23.021,12.841z"/>
</g>
</svg>
