<?xml version="1.0" encoding="utf-8"?>
<!-- Generator: Adobe Illustrator 15.1.0, SVG Export Plug-In  -->
<!DOCTYPE svg PUBLIC "-//W3C//DTD SVG 1.1//EN" "http://www.w3.org/Graphics/SVG/1.1/DTD/svg11.dtd" [
	<!ENTITY ns_flows "http://ns.adobe.com/Flows/1.0/">
]>
<svg version="1.1"
	 xmlns="http://www.w3.org/2000/svg" xmlns:xlink="http://www.w3.org/1999/xlink" xmlns:a="http://ns.adobe.com/AdobeSVGViewerExtensions/3.0/"
	 x="0px" y="0px" width="34px" height="35px" viewBox="-0.476 -0.695 34 35" enable-background="new -0.476 -0.695 34 35"
	 xml:space="preserve">
<defs>
</defs>
<path fill="#CED74F" d="M12.224,24.953l-0.34-15.574c-0.005-0.208,0.104-0.403,0.284-0.512c0.18-0.106,0.405-0.11,0.586-0.005
	l12.79,7.271c0.179,0.101,0.287,0.284,0.293,0.486c0.018,0.198-0.088,0.392-0.256,0.507l-12.453,8.299
	c-0.175,0.116-0.402,0.134-0.59,0.029C12.35,25.359,12.229,25.164,12.224,24.953z"/>
<path fill="none" stroke="#CED74F" stroke-width="4" stroke-miterlimit="10" d="M30.968,16.871c0,7.997-6.486,14.479-14.484,14.479
	C8.483,31.351,2,24.868,2,16.871c0-8,6.483-14.484,14.483-14.484C24.481,2.387,30.968,8.871,30.968,16.871z"/>
<polygon display="none" fill="none" stroke="#CED74F" stroke-width="3" points="23.979,1.5 3.692,1.5 3.692,32.273 29.796,32.273 
	29.796,8.381 "/>
<polyline display="none" fill="#CED74F" points="23.446,0.898 22.461,8.826 30.389,9.814 "/>
<path display="none" fill="none" d="M15.672,7.08c-0.409,0.647-0.207,2,0.25,2.518C15.771,8.824,16.236,7.436,15.672,7.08z"/>
<path display="none" fill="none" d="M8.75,26.458c0.969-0.543,1.871-1.816,2.014-2.768C10.031,24.437,7.971,25.021,8.75,26.458z"/>
<path display="none" fill="none" d="M22.715,19.663c0.162,0.787,2.33,1.459,2.395,0.124C24.535,19.521,23.49,19.728,22.715,19.663z"
	/>
<path display="none" fill="none" d="M14.161,20.547c1.669-0.681,3.632-1.067,5.286-1.761c-1.285-1.276-2.015-3.108-3.271-4.407
	C15.727,16.654,14.764,18.423,14.161,20.547z"/>
<path display="none" fill="#CED74F" d="M21.333,18.026c-0.814-1.147-1.384-1.647-2.14-2.765c-0.535-0.797-1.658-2.209-1.76-3.273
	c-0.166-1.75,1.46-5.219-0.253-6.546c-1.228-0.946-2.999-0.115-3.398,1.009c-0.833,2.357,0.97,4.441,1.007,6.038
	c0.037,1.515-0.928,3.138-1.383,4.405c-0.547,1.517-1.033,2.916-1.637,4.156c-1.682,1.058-5.457,2.153-5.281,5.032
	c0.061,1.038,1.019,2.389,2.389,2.389c2.818-0.002,3.309-4.043,4.905-5.662c2.091-0.847,4.284-1.591,6.671-2.138
	c1.556,2.432,7.101,2.426,6.668-1.134C26.868,17.428,23.6,17.553,21.333,18.026z M8.275,27.172c-1.18-2.183,1.941-3.063,3.051-4.194
	C11.111,24.416,9.744,26.35,8.275,27.172z M15.635,5.666c1.201,0.754,0.209,3.705,0.531,5.346
	C15.195,9.914,14.764,7.041,15.635,5.666z M14.161,20.547c0.603-2.124,1.565-3.893,2.015-6.168c1.257,1.299,1.986,3.131,3.271,4.407
	C17.793,19.479,15.83,19.866,14.161,20.547z M22.043,19.42c1.207,0.101,2.845-0.225,3.74,0.193
	C25.683,21.698,22.295,20.647,22.043,19.42z"/>
</svg>
